<?xml version="1.0" encoding="utf-8"?>
<!-- Generator: Adobe Illustrator 19.0.0, SVG Export Plug-In . SVG Version: 6.00 Build 0)  -->
<svg version="1.1" id="Layer_1" xmlns="http://www.w3.org/2000/svg" xmlns:xlink="http://www.w3.org/1999/xlink" x="0px" y="0px"
	 viewBox="0 0 960 560" style="enable-background:new 0 0 960 560;" xml:space="preserve">
<style type="text/css">
	.st0{opacity:0.5;}
	.st1{fill:#010E0E;}
	.st2{fill:#011C1C;}
	.st3{fill:#022A2A;}
	.st4{fill:#033838;}
	.st5{fill:#034545;}
	.st6{fill:#045353;}
	.st7{fill:#056161;}
	.st8{fill:#066F6F;}
	.st9{fill:#067D7D;}
	.st10{fill:#078B8B;}
	.st11{fill:#089999;}
	.st12{fill:#08A7A7;}
	.st13{fill:#09B4B4;}
	.st14{fill:#0AC2C2;}
	.st15{fill:#0AD0D0;}
	.st16{fill:#0BDEDE;}
	.st17{fill:#0BD9D9;}
	.st18{fill:#0BD4D4;}
	.st19{fill:#0ACBCB;}
	.st20{fill:#0AC6C6;}
	.st21{fill:#0AC1C1;}
	.st22{fill:#09BCBC;}
	.st23{fill:#09B8B8;}
	.st24{fill:#09B3B3;}
	.st25{fill:#09AEAE;}
	.st26{fill:#08A9A9;}
	.st27{fill:#08A4A4;}
	.st28{fill:#089F9F;}
	.st29{fill:#089B9B;}
	.st30{fill:#079696;}
	.st31{fill:#079191;}
	.st32{opacity:0.7;}
	.st33{opacity:0.9;}
</style>
<g id="XMLID_243_">
	<g id="XMLID_449_" class="st0">
		<polygon id="XMLID_482_" points="231.5,314.4 181.8,287.7 180.1,231.4 228,201.7 277.7,228.3 279.5,284.7 		"/>
		<polygon id="XMLID_481_" class="st1" points="231.5,314 182.2,287.5 180.5,231.6 228,202.1 277.3,228.6 279.1,284.5 		"/>
		<polygon id="XMLID_480_" class="st2" points="231.5,313.5 182.6,287.3 180.8,231.8 228,202.5 277,228.8 278.7,284.3 		"/>
		<polygon id="XMLID_479_" class="st3" points="231.5,313.1 182.9,287 181.2,232 228.1,203 276.6,229 278.3,284.1 		"/>
		<polygon id="XMLID_478_" class="st4" points="231.5,312.6 183.3,286.8 181.6,232.2 228.1,203.4 276.2,229.3 277.9,283.9 		"/>
		<polygon id="XMLID_477_" class="st5" points="231.4,312.2 183.7,286.6 182,232.4 228.1,203.9 275.8,229.5 277.5,283.7 		"/>
		<polygon id="XMLID_476_" class="st6" points="231.4,311.7 184.1,286.3 182.4,232.6 228.1,204.3 275.5,229.7 277.1,283.4 		"/>
		<polygon id="XMLID_475_" class="st7" points="231.4,311.3 184.4,286.1 182.8,232.8 228.1,204.7 275.1,230 276.7,283.2 		"/>
		<polygon id="XMLID_474_" class="st8" points="231.4,310.9 184.8,285.9 183.2,233 228.1,205.2 274.7,230.2 276.3,283 		"/>
		<polygon id="XMLID_473_" class="st9" points="231.4,310.4 185.2,285.6 183.6,233.2 228.1,205.6 274.3,230.4 275.9,282.8 		"/>
		<polygon id="XMLID_472_" class="st10" points="231.4,310 185.6,285.4 184,233.4 228.2,206.1 273.9,230.7 275.6,282.6 		"/>
		<polygon id="XMLID_471_" class="st11" points="231.4,309.5 186,285.2 184.4,233.7 228.2,206.5 273.6,230.9 275.2,282.4 		"/>
		<polygon id="XMLID_470_" class="st12" points="231.3,309.1 186.3,284.9 184.7,233.9 228.2,207 273.2,231.1 274.8,282.2 		"/>
		<polygon id="XMLID_469_" class="st13" points="231.3,308.7 186.7,284.7 185.1,234.1 228.2,207.4 272.8,231.4 274.4,282 		"/>
		<polygon id="XMLID_468_" class="st14" points="231.3,308.2 187.1,284.5 185.5,234.3 228.2,207.8 272.4,231.6 274,281.8 		"/>
		<polygon id="XMLID_467_" class="st15" points="231.3,307.8 187.5,284.2 185.9,234.5 228.2,208.3 272.1,231.8 273.6,281.6 		"/>
		<polygon id="XMLID_466_" class="st16" points="231.3,307.3 187.8,284 186.3,234.7 228.2,208.7 271.7,232.1 273.2,281.4 		"/>
		<polygon id="XMLID_465_" class="st17" points="231.3,306.8 188.3,283.7 186.8,234.9 228.3,209.2 271.3,232.3 272.8,281.1 		"/>
		<polygon id="XMLID_464_" class="st18" points="231.3,306.3 188.7,283.5 187.2,235.2 228.3,209.7 270.8,232.6 272.3,280.9 		"/>
		<polygon id="XMLID_463_" class="st15" points="231.2,305.8 189.1,283.2 187.7,235.4 228.3,210.3 270.4,232.9 271.9,280.6 		"/>
		<polygon id="XMLID_462_" class="st19" points="231.2,305.3 189.6,282.9 188.1,235.7 228.3,210.8 270,233.1 271.4,280.4 		"/>
		<polygon id="XMLID_461_" class="st20" points="231.2,304.8 190,282.7 188.6,235.9 228.3,211.3 269.5,233.4 271,280.1 		"/>
		<polygon id="XMLID_460_" class="st21" points="231.2,304.3 190.4,282.4 189,236.2 228.3,211.8 269.1,233.7 270.5,279.9 		"/>
		<polygon id="XMLID_459_" class="st22" points="231.2,303.8 190.9,282.1 189.5,236.4 228.3,212.3 268.7,233.9 270.1,279.7 		"/>
		<polygon id="XMLID_458_" class="st23" points="231.2,303.2 191.3,281.8 189.9,236.6 228.4,212.8 268.2,234.2 269.6,279.4 		"/>
		<polygon id="XMLID_457_" class="st24" points="231.1,302.7 191.7,281.6 190.4,236.9 228.4,213.3 267.8,234.5 269.2,279.2 		"/>
		<polygon id="XMLID_456_" class="st25" points="231.1,302.2 192.2,281.3 190.8,237.1 228.4,213.8 267.3,234.7 268.7,278.9 		"/>
		<polygon id="XMLID_455_" class="st26" points="231.1,301.7 192.6,281 191.3,237.4 228.4,214.3 266.9,235 268.3,278.7 		"/>
		<polygon id="XMLID_454_" class="st27" points="231.1,301.2 193,280.8 191.7,237.6 228.4,214.9 266.5,235.3 267.8,278.5 		"/>
		<polygon id="XMLID_453_" class="st28" points="231.1,300.7 193.5,280.5 192.2,237.8 228.4,215.4 266,235.6 267.4,278.2 		"/>
		<polygon id="XMLID_452_" class="st29" points="231.1,300.2 193.9,280.2 192.6,238.1 228.5,215.9 265.6,235.8 266.9,278 		"/>
		<polygon id="XMLID_451_" class="st30" points="231.1,299.7 194.4,280 193.1,238.3 228.5,216.4 265.2,236.1 266.5,277.7 		"/>
		<polygon id="XMLID_450_" class="st31" points="231,299.1 194.8,279.7 193.5,238.6 228.5,216.9 264.7,236.4 266,277.5 		"/>
	</g>
	<g id="XMLID_415_">
		<polygon id="XMLID_448_" points="280.4,393.3 230.7,366.6 228.9,310.2 276.9,280.5 326.6,307.2 328.3,363.6 		"/>
		<polygon id="XMLID_447_" class="st1" points="280.3,392.8 231,366.4 229.3,310.4 276.9,281 326.2,307.4 327.9,363.4 		"/>
		<polygon id="XMLID_446_" class="st2" points="280.3,392.4 231.4,366.1 229.7,310.6 276.9,281.4 325.8,307.7 327.5,363.1 		"/>
		<polygon id="XMLID_445_" class="st3" points="280.3,391.9 231.8,365.9 230.1,310.8 276.9,281.8 325.4,307.9 327.1,362.9 		"/>
		<polygon id="XMLID_444_" class="st4" points="280.3,391.5 232.2,365.7 230.5,311.1 276.9,282.3 325.1,308.1 326.7,362.7 		"/>
		<polygon id="XMLID_443_" class="st5" points="280.3,391.1 232.5,365.4 230.9,311.3 276.9,282.7 324.7,308.4 326.4,362.5 		"/>
		<polygon id="XMLID_442_" class="st6" points="280.3,390.6 232.9,365.2 231.3,311.5 276.9,283.2 324.3,308.6 326,362.3 		"/>
		<polygon id="XMLID_441_" class="st7" points="280.3,390.2 233.3,365 231.6,311.7 277,283.6 323.9,308.8 325.6,362.1 		"/>
		<polygon id="XMLID_440_" class="st8" points="280.2,389.7 233.7,364.7 232,311.9 277,284.1 323.6,309.1 325.2,361.9 		"/>
		<polygon id="XMLID_439_" class="st9" points="280.2,389.3 234.1,364.5 232.4,312.1 277,284.5 323.2,309.3 324.8,361.7 		"/>
		<polygon id="XMLID_438_" class="st10" points="280.2,388.8 234.4,364.3 232.8,312.3 277,284.9 322.8,309.5 324.4,361.5 		"/>
		<polygon id="XMLID_437_" class="st11" points="280.2,388.4 234.8,364 233.2,312.5 277,285.4 322.4,309.8 324,361.3 		"/>
		<polygon id="XMLID_436_" class="st12" points="280.2,388 235.2,363.8 233.6,312.7 277,285.8 322,310 323.6,361.1 		"/>
		<polygon id="XMLID_435_" class="st13" points="280.2,387.5 235.6,363.6 234,312.9 277,286.3 321.7,310.2 323.2,360.8 		"/>
		<polygon id="XMLID_434_" class="st14" points="280.2,387.1 235.9,363.3 234.4,313.1 277.1,286.7 321.3,310.5 322.9,360.6 		"/>
		<polygon id="XMLID_433_" class="st15" points="280.2,386.6 236.3,363.1 234.8,313.4 277.1,287.1 320.9,310.7 322.5,360.4 		"/>
		<polygon id="XMLID_432_" class="st16" points="280.1,386.2 236.7,362.9 235.2,313.6 277.1,287.6 320.5,310.9 322.1,360.2 		"/>
		<polygon id="XMLID_431_" class="st17" points="280.1,385.7 237.1,362.6 235.6,313.8 277.1,288.1 320.1,311.2 321.6,360 		"/>
		<polygon id="XMLID_430_" class="st18" points="280.1,385.2 237.5,362.3 236.1,314 277.1,288.6 319.7,311.5 321.2,359.7 		"/>
		<polygon id="XMLID_429_" class="st15" points="280.1,384.7 238,362.1 236.5,314.3 277.1,289.1 319.2,311.7 320.7,359.5 		"/>
		<polygon id="XMLID_428_" class="st19" points="280.1,384.2 238.4,361.8 237,314.5 277.1,289.6 318.8,312 320.3,359.3 		"/>
		<polygon id="XMLID_427_" class="st20" points="280.1,383.6 238.9,361.5 237.4,314.8 277.2,290.1 318.4,312.3 319.8,359 		"/>
		<polygon id="XMLID_426_" class="st21" points="280,383.1 239.3,361.2 237.9,315 277.2,290.7 317.9,312.5 319.4,358.8 		"/>
		<polygon id="XMLID_425_" class="st22" points="280,382.6 239.7,361 238.3,315.3 277.2,291.2 317.5,312.8 318.9,358.5 		"/>
		<polygon id="XMLID_424_" class="st23" points="280,382.1 240.2,360.7 238.8,315.5 277.2,291.7 317.1,313.1 318.5,358.3 		"/>
		<polygon id="XMLID_423_" class="st24" points="280,381.6 240.6,360.4 239.2,315.7 277.2,292.2 316.6,313.3 318,358 		"/>
		<polygon id="XMLID_422_" class="st25" points="280,381.1 241,360.2 239.7,316 277.2,292.7 316.2,313.6 317.6,357.8 		"/>
		<polygon id="XMLID_421_" class="st26" points="280,380.6 241.5,359.9 240.1,316.2 277.3,293.2 315.8,313.9 317.1,357.6 		"/>
		<polygon id="XMLID_420_" class="st27" points="279.9,380.1 241.9,359.6 240.6,316.5 277.3,293.7 315.3,314.1 316.7,357.3 		"/>
		<polygon id="XMLID_419_" class="st28" points="279.9,379.5 242.3,359.4 241,316.7 277.3,294.2 314.9,314.4 316.2,357.1 		"/>
		<polygon id="XMLID_418_" class="st29" points="279.9,379 242.8,359.1 241.5,317 277.3,294.7 314.5,314.7 315.8,356.8 		"/>
		<polygon id="XMLID_417_" class="st30" points="279.9,378.5 243.2,358.8 241.9,317.2 277.3,295.3 314,315 315.3,356.6 		"/>
		<polygon id="XMLID_416_" class="st31" points="279.9,378 243.6,358.6 242.4,317.4 277.3,295.8 313.6,315.2 314.9,356.3 		"/>
	</g>
	<g id="XMLID_381_" class="st32">
		<polygon id="XMLID_414_" points="188.3,396 138.7,369.4 136.9,313 184.9,283.3 234.5,310 236.3,366.3 		"/>
		<polygon id="XMLID_413_" class="st1" points="188.3,395.6 139,369.1 137.3,313.2 184.9,283.7 234.2,310.2 235.9,366.1 		"/>
		<polygon id="XMLID_412_" class="st2" points="188.3,395.2 139.4,368.9 137.7,313.4 184.9,284.2 233.8,310.4 235.5,365.9 		"/>
		<polygon id="XMLID_411_" class="st3" points="188.3,394.7 139.8,368.7 138.1,313.6 184.9,284.6 233.4,310.7 235.1,365.7 		"/>
		<polygon id="XMLID_410_" class="st4" points="188.3,394.3 140.2,368.4 138.5,313.8 184.9,285.1 233,310.9 234.7,365.5 		"/>
		<polygon id="XMLID_409_" class="st5" points="188.3,393.8 140.5,368.2 138.9,314 184.9,285.5 232.7,311.1 234.3,365.3 		"/>
		<polygon id="XMLID_408_" class="st6" points="188.3,393.4 140.9,368 139.2,314.3 184.9,286 232.3,311.4 234,365.1 		"/>
		<polygon id="XMLID_407_" class="st7" points="188.3,393 141.3,367.7 139.6,314.5 184.9,286.4 231.9,311.6 233.6,364.9 		"/>
		<polygon id="XMLID_406_" class="st8" points="188.2,392.5 141.7,367.5 140,314.7 185,286.8 231.5,311.8 233.2,364.7 		"/>
		<polygon id="XMLID_405_" class="st9" points="188.2,392.1 142,367.3 140.4,314.9 185,287.3 231.2,312.1 232.8,364.5 		"/>
		<polygon id="XMLID_404_" class="st10" points="188.2,391.6 142.4,367 140.8,315.1 185,287.7 230.8,312.3 232.4,364.3 		"/>
		<polygon id="XMLID_403_" class="st11" points="188.2,391.2 142.8,366.8 141.2,315.3 185,288.2 230.4,312.5 232,364 		"/>
		<polygon id="XMLID_402_" class="st12" points="188.2,390.7 143.2,366.6 141.6,315.5 185,288.6 230,312.8 231.6,363.8 		"/>
		<polygon id="XMLID_401_" class="st13" points="188.2,390.3 143.5,366.3 142,315.7 185,289 229.7,313 231.2,363.6 		"/>
		<polygon id="XMLID_400_" class="st14" points="188.2,389.9 143.9,366.1 142.4,315.9 185,289.5 229.3,313.2 230.8,363.4 		"/>
		<polygon id="XMLID_399_" class="st15" points="188.1,389.4 144.3,365.9 142.7,316.1 185.1,289.9 228.9,313.5 230.5,363.2 		"/>
		<polygon id="XMLID_398_" class="st16" points="188.1,389 144.7,365.6 143.1,316.3 185.1,290.4 228.5,313.7 230.1,363 		"/>
		<polygon id="XMLID_397_" class="st17" points="188.1,388.5 145.1,365.4 143.6,316.6 185.1,290.9 228.1,314 229.6,362.8 		"/>
		<polygon id="XMLID_396_" class="st18" points="188.1,388 145.5,365.1 144,316.8 185.1,291.4 227.7,314.2 229.2,362.5 		"/>
		<polygon id="XMLID_395_" class="st15" points="188.1,387.4 146,364.8 144.5,317.1 185.1,291.9 227.2,314.5 228.7,362.3 		"/>
		<polygon id="XMLID_394_" class="st19" points="188.1,386.9 146.4,364.6 144.9,317.3 185.1,292.4 226.8,314.8 228.3,362 		"/>
		<polygon id="XMLID_393_" class="st20" points="188.1,386.4 146.8,364.3 145.4,317.6 185.2,292.9 226.4,315 227.8,361.8 		"/>
		<polygon id="XMLID_392_" class="st21" points="188,385.9 147.3,364 145.8,317.8 185.2,293.4 225.9,315.3 227.4,361.5 		"/>
		<polygon id="XMLID_391_" class="st22" points="188,385.4 147.7,363.8 146.3,318 185.2,293.9 225.5,315.6 226.9,361.3 		"/>
		<polygon id="XMLID_390_" class="st23" points="188,384.9 148.1,363.5 146.7,318.3 185.2,294.5 225.1,315.9 226.5,361.1 		"/>
		<polygon id="XMLID_389_" class="st24" points="188,384.4 148.6,363.2 147.2,318.5 185.2,295 224.6,316.1 226,360.8 		"/>
		<polygon id="XMLID_388_" class="st25" points="188,383.9 149,363 147.6,318.8 185.2,295.5 224.2,316.4 225.6,360.6 		"/>
		<polygon id="XMLID_387_" class="st26" points="188,383.4 149.4,362.7 148.1,319 185.2,296 223.7,316.7 225.1,360.3 		"/>
		<polygon id="XMLID_386_" class="st27" points="187.9,382.8 149.9,362.4 148.5,319.2 185.3,296.5 223.3,316.9 224.7,360.1 		"/>
		<polygon id="XMLID_385_" class="st28" points="187.9,382.3 150.3,362.1 149,319.5 185.3,297 222.9,317.2 224.2,359.9 		"/>
		<polygon id="XMLID_384_" class="st29" points="187.9,381.8 150.8,361.9 149.4,319.7 185.3,297.5 222.4,317.5 223.7,359.6 		"/>
		<polygon id="XMLID_383_" class="st30" points="187.9,381.3 151.2,361.6 149.9,320 185.3,298 222,317.7 223.3,359.4 		"/>
		<polygon id="XMLID_382_" class="st31" points="187.9,380.8 151.6,361.3 150.4,320.2 185.3,298.5 221.6,318 222.8,359.1 		"/>
	</g>
	<g id="XMLID_347_" class="st0">
		<polygon id="XMLID_380_" points="366.7,231 317,204.3 315.2,148 363.2,118.3 412.9,144.9 414.6,201.3 		"/>
		<polygon id="XMLID_379_" class="st1" points="366.7,230.6 317.4,204.1 315.6,148.2 363.2,118.7 412.5,145.2 414.2,201.1 		"/>
		<polygon id="XMLID_378_" class="st2" points="366.7,230.1 317.7,203.9 316,148.4 363.2,119.2 412.1,145.4 413.9,200.9 		"/>
		<polygon id="XMLID_377_" class="st3" points="366.6,229.7 318.1,203.6 316.4,148.6 363.2,119.6 411.8,145.6 413.5,200.7 		"/>
		<polygon id="XMLID_376_" class="st4" points="366.6,229.2 318.5,203.4 316.8,148.8 363.2,120 411.4,145.9 413.1,200.5 		"/>
		<polygon id="XMLID_375_" class="st5" points="366.6,228.8 318.9,203.2 317.2,149 363.3,120.5 411,146.1 412.7,200.3 		"/>
		<polygon id="XMLID_374_" class="st6" points="366.6,228.4 319.2,202.9 317.6,149.2 363.3,120.9 410.6,146.3 412.3,200.1 		"/>
		<polygon id="XMLID_373_" class="st7" points="366.6,227.9 319.6,202.7 318,149.4 363.3,121.4 410.3,146.6 411.9,199.9 		"/>
		<polygon id="XMLID_372_" class="st8" points="366.6,227.5 320,202.5 318.4,149.6 363.3,121.8 409.9,146.8 411.5,199.6 		"/>
		<polygon id="XMLID_371_" class="st9" points="366.6,227 320.4,202.3 318.7,149.9 363.3,122.3 409.5,147 411.1,199.4 		"/>
		<polygon id="XMLID_370_" class="st10" points="366.5,226.6 320.7,202 319.1,150.1 363.3,122.7 409.1,147.3 410.7,199.2 		"/>
		<polygon id="XMLID_369_" class="st11" points="366.5,226.2 321.1,201.8 319.5,150.3 363.3,123.1 408.7,147.5 410.3,199 		"/>
		<polygon id="XMLID_368_" class="st12" points="366.5,225.7 321.5,201.6 319.9,150.5 363.4,123.6 408.4,147.7 410,198.8 		"/>
		<polygon id="XMLID_367_" class="st13" points="366.5,225.3 321.9,201.3 320.3,150.7 363.4,124 408,148 409.6,198.6 		"/>
		<polygon id="XMLID_366_" class="st14" points="366.5,224.8 322.3,201.1 320.7,150.9 363.4,124.5 407.6,148.2 409.2,198.4 		"/>
		<polygon id="XMLID_365_" class="st15" points="366.5,224.4 322.6,200.9 321.1,151.1 363.4,124.9 407.2,148.4 408.8,198.2 		"/>
		<polygon id="XMLID_364_" class="st16" points="366.5,223.9 323,200.6 321.5,151.3 363.4,125.3 406.9,148.7 408.4,198 		"/>
		<polygon id="XMLID_363_" class="st17" points="366.4,223.4 323.4,200.4 321.9,151.6 363.4,125.9 406.4,148.9 407.9,197.7 		"/>
		<polygon id="XMLID_362_" class="st18" points="366.4,222.9 323.9,200.1 322.4,151.8 363.4,126.4 406,149.2 407.5,197.5 		"/>
		<polygon id="XMLID_361_" class="st15" points="366.4,222.4 324.3,199.8 322.8,152 363.5,126.9 405.6,149.5 407,197.2 		"/>
		<polygon id="XMLID_360_" class="st19" points="366.4,221.9 324.7,199.5 323.3,152.3 363.5,127.4 405.1,149.7 406.6,197 		"/>
		<polygon id="XMLID_359_" class="st20" points="366.4,221.4 325.2,199.3 323.7,152.5 363.5,127.9 404.7,150 406.1,196.8 		"/>
		<polygon id="XMLID_358_" class="st21" points="366.4,220.9 325.6,199 324.2,152.8 363.5,128.4 404.3,150.3 405.7,196.5 		"/>
		<polygon id="XMLID_357_" class="st22" points="366.4,220.4 326,198.7 324.6,153 363.5,128.9 403.8,150.6 405.2,196.3 		"/>
		<polygon id="XMLID_356_" class="st23" points="366.3,219.9 326.5,198.5 325.1,153.3 363.5,129.4 403.4,150.8 404.8,196 		"/>
		<polygon id="XMLID_355_" class="st24" points="366.3,219.3 326.9,198.2 325.5,153.5 363.6,129.9 403,151.1 404.3,195.8 		"/>
		<polygon id="XMLID_354_" class="st25" points="366.3,218.8 327.4,197.9 326,153.7 363.6,130.5 402.5,151.4 403.9,195.6 		"/>
		<polygon id="XMLID_353_" class="st26" points="366.3,218.3 327.8,197.7 326.4,154 363.6,131 402.1,151.6 403.4,195.3 		"/>
		<polygon id="XMLID_352_" class="st27" points="366.3,217.8 328.2,197.4 326.9,154.2 363.6,131.5 401.7,151.9 403,195.1 		"/>
		<polygon id="XMLID_351_" class="st28" points="366.3,217.3 328.7,197.1 327.3,154.5 363.6,132 401.2,152.2 402.5,194.8 		"/>
		<polygon id="XMLID_350_" class="st29" points="366.2,216.8 329.1,196.8 327.8,154.7 363.6,132.5 400.8,152.4 402.1,194.6 		"/>
		<polygon id="XMLID_349_" class="st30" points="366.2,216.3 329.5,196.6 328.2,154.9 363.6,133 400.3,152.7 401.6,194.3 		"/>
		<polygon id="XMLID_348_" class="st31" points="366.2,215.8 330,196.3 328.7,155.2 363.7,133.5 399.9,153 401.2,194.1 		"/>
	</g>
	<g id="XMLID_313_">
		<polygon id="XMLID_346_" points="415.5,309.9 365.8,283.2 364.1,226.8 412,197.1 461.7,223.8 463.5,280.2 		"/>
		<polygon id="XMLID_345_" class="st1" points="415.5,309.4 366.2,283 364.5,227 412.1,197.6 461.4,224 463.1,280 		"/>
		<polygon id="XMLID_344_" class="st2" points="415.5,309 366.6,282.7 364.9,227.3 412.1,198 461,224.3 462.7,279.8 		"/>
		<polygon id="XMLID_343_" class="st3" points="415.5,308.6 367,282.5 365.3,227.5 412.1,198.5 460.6,224.5 462.3,279.6 		"/>
		<polygon id="XMLID_342_" class="st4" points="415.5,308.1 367.3,282.3 365.7,227.7 412.1,198.9 460.2,224.7 461.9,279.3 		"/>
		<polygon id="XMLID_341_" class="st5" points="415.5,307.7 367.7,282 366,227.9 412.1,199.3 459.9,225 461.5,279.1 		"/>
		<polygon id="XMLID_340_" class="st6" points="415.5,307.2 368.1,281.8 366.4,228.1 412.1,199.8 459.5,225.2 461.1,278.9 		"/>
		<polygon id="XMLID_339_" class="st7" points="415.4,306.8 368.5,281.6 366.8,228.3 412.1,200.2 459.1,225.4 460.8,278.7 		"/>
		<polygon id="XMLID_338_" class="st8" points="415.4,306.3 368.8,281.3 367.2,228.5 412.2,200.7 458.7,225.7 460.4,278.5 		"/>
		<polygon id="XMLID_337_" class="st9" points="415.4,305.9 369.2,281.1 367.6,228.7 412.2,201.1 458.4,225.9 460,278.3 		"/>
		<polygon id="XMLID_336_" class="st10" points="415.4,305.5 369.6,280.9 368,228.9 412.2,201.6 458,226.1 459.6,278.1 		"/>
		<polygon id="XMLID_335_" class="st11" points="415.4,305 370,280.6 368.4,229.1 412.2,202 457.6,226.4 459.2,277.9 		"/>
		<polygon id="XMLID_334_" class="st12" points="415.4,304.6 370.4,280.4 368.8,229.3 412.2,202.4 457.2,226.6 458.8,277.7 		"/>
		<polygon id="XMLID_333_" class="st13" points="415.4,304.1 370.7,280.2 369.2,229.6 412.2,202.9 456.9,226.8 458.4,277.5 		"/>
		<polygon id="XMLID_332_" class="st14" points="415.3,303.7 371.1,279.9 369.5,229.8 412.2,203.3 456.5,227.1 458,277.3 		"/>
		<polygon id="XMLID_331_" class="st15" points="415.3,303.3 371.5,279.7 369.9,230 412.2,203.8 456.1,227.3 457.6,277 		"/>
		<polygon id="XMLID_330_" class="st16" points="415.3,302.8 371.9,279.5 370.3,230.2 412.3,204.2 455.7,227.5 457.3,276.8 		"/>
		<polygon id="XMLID_329_" class="st17" points="415.3,302.3 372.3,279.2 370.8,230.4 412.3,204.7 455.3,227.8 456.8,276.6 		"/>
		<polygon id="XMLID_328_" class="st18" points="415.3,301.8 372.7,278.9 371.2,230.7 412.3,205.2 454.9,228.1 456.4,276.4 		"/>
		<polygon id="XMLID_327_" class="st15" points="415.3,301.3 373.2,278.7 371.7,230.9 412.3,205.7 454.4,228.3 455.9,276.1 		"/>
		<polygon id="XMLID_326_" class="st19" points="415.3,300.8 373.6,278.4 372.1,231.1 412.3,206.3 454,228.6 455.4,275.9 		"/>
		<polygon id="XMLID_325_" class="st20" points="415.2,300.3 374,278.1 372.6,231.4 412.3,206.8 453.5,228.9 455,275.6 		"/>
		<polygon id="XMLID_324_" class="st21" points="415.2,299.7 374.5,277.9 373,231.6 412.4,207.3 453.1,229.2 454.5,275.4 		"/>
		<polygon id="XMLID_323_" class="st22" points="415.2,299.2 374.9,277.6 373.5,231.9 412.4,207.8 452.7,229.4 454.1,275.1 		"/>
		<polygon id="XMLID_322_" class="st23" points="415.2,298.7 375.3,277.3 373.9,232.1 412.4,208.3 452.2,229.7 453.6,274.9 		"/>
		<polygon id="XMLID_321_" class="st24" points="415.2,298.2 375.8,277.1 374.4,232.4 412.4,208.8 451.8,230 453.2,274.7 		"/>
		<polygon id="XMLID_320_" class="st25" points="415.2,297.7 376.2,276.8 374.8,232.6 412.4,209.3 451.4,230.2 452.7,274.4 		"/>
		<polygon id="XMLID_319_" class="st26" points="415.1,297.2 376.6,276.5 375.3,232.8 412.4,209.8 450.9,230.5 452.3,274.2 		"/>
		<polygon id="XMLID_318_" class="st27" points="415.1,296.7 377.1,276.3 375.7,233.1 412.5,210.3 450.5,230.8 451.8,273.9 		"/>
		<polygon id="XMLID_317_" class="st28" points="415.1,296.2 377.5,276 376.2,233.3 412.5,210.9 450.1,231 451.4,273.7 		"/>
		<polygon id="XMLID_316_" class="st29" points="415.1,295.7 377.9,275.7 376.6,233.6 412.5,211.4 449.6,231.3 450.9,273.4 		"/>
		<polygon id="XMLID_315_" class="st30" points="415.1,295.1 378.4,275.4 377.1,233.8 412.5,211.9 449.2,231.6 450.5,273.2 		"/>
		<polygon id="XMLID_314_" class="st31" points="415.1,294.6 378.8,275.2 377.5,234.1 412.5,212.4 448.8,231.8 450,273 		"/>
	</g>
	<g id="XMLID_279_" class="st33">
		<polygon id="XMLID_312_" points="323.5,312.7 273.8,286 272.1,229.6 320,199.9 369.7,226.6 371.5,283 		"/>
		<polygon id="XMLID_311_" class="st1" points="323.5,312.2 274.2,285.8 272.5,229.8 320,200.4 369.3,226.8 371.1,282.8 		"/>
		<polygon id="XMLID_310_" class="st2" points="323.5,311.8 274.6,285.5 272.9,230 320.1,200.8 369,227.1 370.7,282.5 		"/>
		<polygon id="XMLID_309_" class="st3" points="323.5,311.3 275,285.3 273.3,230.2 320.1,201.2 368.6,227.3 370.3,282.3 		"/>
		<polygon id="XMLID_308_" class="st4" points="323.5,310.9 275.3,285.1 273.6,230.5 320.1,201.7 368.2,227.5 369.9,282.1 		"/>
		<polygon id="XMLID_307_" class="st5" points="323.5,310.4 275.7,284.8 274,230.7 320.1,202.1 367.8,227.8 369.5,281.9 		"/>
		<polygon id="XMLID_306_" class="st6" points="323.4,310 276.1,284.6 274.4,230.9 320.1,202.6 367.5,228 369.1,281.7 		"/>
		<polygon id="XMLID_305_" class="st7" points="323.4,309.6 276.5,284.4 274.8,231.1 320.1,203 367.1,228.2 368.7,281.5 		"/>
		<polygon id="XMLID_304_" class="st8" points="323.4,309.1 276.8,284.1 275.2,231.3 320.1,203.5 366.7,228.5 368.4,281.3 		"/>
		<polygon id="XMLID_303_" class="st9" points="323.4,308.7 277.2,283.9 275.6,231.5 320.2,203.9 366.3,228.7 368,281.1 		"/>
		<polygon id="XMLID_302_" class="st10" points="323.4,308.2 277.6,283.7 276,231.7 320.2,204.3 366,228.9 367.6,280.9 		"/>
		<polygon id="XMLID_301_" class="st11" points="323.4,307.8 278,283.4 276.4,231.9 320.2,204.8 365.6,229.2 367.2,280.7 		"/>
		<polygon id="XMLID_300_" class="st12" points="323.4,307.4 278.3,283.2 276.8,232.1 320.2,205.2 365.2,229.4 366.8,280.5 		"/>
		<polygon id="XMLID_299_" class="st13" points="323.3,306.9 278.7,283 277.1,232.3 320.2,205.7 364.8,229.6 366.4,280.2 		"/>
		<polygon id="XMLID_298_" class="st14" points="323.3,306.5 279.1,282.7 277.5,232.5 320.2,206.1 364.5,229.8 366,280 		"/>
		<polygon id="XMLID_297_" class="st15" points="323.3,306 279.5,282.5 277.9,232.8 320.2,206.5 364.1,230.1 365.6,279.8 		"/>
		<polygon id="XMLID_296_" class="st16" points="323.3,305.6 279.8,282.3 278.3,233 320.2,207 363.7,230.3 365.2,279.6 		"/>
		<polygon id="XMLID_295_" class="st17" points="323.3,305.1 280.3,282 278.8,233.2 320.3,207.5 363.3,230.6 364.8,279.4 		"/>
		<polygon id="XMLID_294_" class="st18" points="323.3,304.6 280.7,281.7 279.2,233.4 320.3,208 362.8,230.9 364.3,279.1 		"/>
		<polygon id="XMLID_293_" class="st15" points="323.3,304.1 281.1,281.5 279.7,233.7 320.3,208.5 362.4,231.1 363.9,278.9 		"/>
		<polygon id="XMLID_292_" class="st19" points="323.2,303.5 281.6,281.2 280.1,233.9 320.3,209 362,231.4 363.4,278.7 		"/>
		<polygon id="XMLID_291_" class="st20" points="323.2,303 282,280.9 280.6,234.2 320.3,209.5 361.5,231.7 363,278.4 		"/>
		<polygon id="XMLID_290_" class="st21" points="323.2,302.5 282.5,280.6 281,234.4 320.3,210.1 361.1,231.9 362.5,278.2 		"/>
		<polygon id="XMLID_289_" class="st22" points="323.2,302 282.9,280.4 281.5,234.7 320.4,210.6 360.7,232.2 362.1,277.9 		"/>
		<polygon id="XMLID_288_" class="st23" points="323.2,301.5 283.3,280.1 281.9,234.9 320.4,211.1 360.2,232.5 361.6,277.7 		"/>
		<polygon id="XMLID_287_" class="st24" points="323.2,301 283.8,279.8 282.4,235.1 320.4,211.6 359.8,232.7 361.2,277.4 		"/>
		<polygon id="XMLID_286_" class="st25" points="323.1,300.5 284.2,279.6 282.8,235.4 320.4,212.1 359.4,233 360.7,277.2 		"/>
		<polygon id="XMLID_285_" class="st26" points="323.1,300 284.6,279.3 283.3,235.6 320.4,212.6 358.9,233.3 360.3,277 		"/>
		<polygon id="XMLID_284_" class="st27" points="323.1,299.5 285.1,279 283.7,235.9 320.4,213.1 358.5,233.5 359.8,276.7 		"/>
		<polygon id="XMLID_283_" class="st28" points="323.1,298.9 285.5,278.8 284.2,236.1 320.5,213.6 358.1,233.8 359.4,276.5 		"/>
		<polygon id="XMLID_282_" class="st29" points="323.1,298.4 285.9,278.5 284.6,236.3 320.5,214.1 357.6,234.1 358.9,276.2 		"/>
		<polygon id="XMLID_281_" class="st30" points="323.1,297.9 286.4,278.2 285.1,236.6 320.5,214.7 357.2,234.4 358.5,276 		"/>
		<polygon id="XMLID_280_" class="st31" points="323,297.4 286.8,278 285.5,236.8 320.5,215.2 356.7,234.6 358,275.7 		"/>
	</g>
	<g id="XMLID_244_">
		<g id="XMLID_245_">
			<polygon id="XMLID_278_" points="372.2,390.5 322.5,363.8 320.7,307.4 368.7,277.7 418.4,304.4 420.1,360.8 			"/>
			<polygon id="XMLID_277_" class="st1" points="372.1,390 322.8,363.6 321.1,307.6 368.7,278.2 418,304.6 419.7,360.6 			"/>
			<polygon id="XMLID_276_" class="st2" points="372.1,389.6 323.2,363.3 321.5,307.8 368.7,278.6 417.6,304.9 419.3,360.3 			"/>
			<polygon id="XMLID_275_" class="st3" points="372.1,389.1 323.6,363.1 321.9,308.1 368.7,279.1 417.2,305.1 418.9,360.1 			"/>
			<polygon id="XMLID_274_" class="st4" points="372.1,388.7 324,362.9 322.3,308.3 368.7,279.5 416.9,305.3 418.5,359.9 			"/>
			<polygon id="XMLID_273_" class="st5" points="372.1,388.3 324.3,362.6 322.7,308.5 368.7,279.9 416.5,305.6 418.2,359.7 			"/>
			<polygon id="XMLID_272_" class="st6" points="372.1,387.8 324.7,362.4 323.1,308.7 368.8,280.4 416.1,305.8 417.8,359.5 			"/>
			<polygon id="XMLID_271_" class="st7" points="372.1,387.4 325.1,362.2 323.4,308.9 368.8,280.8 415.7,306 417.4,359.3 			"/>
			<polygon id="XMLID_270_" class="st8" points="372,386.9 325.5,361.9 323.8,309.1 368.8,281.3 415.4,306.3 417,359.1 			"/>
			<polygon id="XMLID_269_" class="st9" points="372,386.5 325.9,361.7 324.2,309.3 368.8,281.7 415,306.5 416.6,358.9 			"/>
			<polygon id="XMLID_268_" class="st10" points="372,386 326.2,361.5 324.6,309.5 368.8,282.1 414.6,306.7 416.2,358.7 			"/>
			<polygon id="XMLID_267_" class="st11" points="372,385.6 326.6,361.2 325,309.7 368.8,282.6 414.2,307 415.8,358.5 			"/>
			<polygon id="XMLID_266_" class="st12" points="372,385.2 327,361 325.4,309.9 368.8,283 413.9,307.2 415.4,358.3 			"/>
			<polygon id="XMLID_265_" class="st13" points="372,384.7 327.4,360.8 325.8,310.1 368.8,283.5 413.5,307.4 415,358.1 			"/>
			<polygon id="XMLID_264_" class="st14" points="372,384.3 327.7,360.5 326.2,310.4 368.9,283.9 413.1,307.7 414.7,357.8 			"/>
			<polygon id="XMLID_263_" class="st15" points="372,383.8 328.1,360.3 326.6,310.6 368.9,284.4 412.7,307.9 414.3,357.6 			"/>
			<polygon id="XMLID_262_" class="st16" points="371.9,383.4 328.5,360.1 327,310.8 368.9,284.8 412.3,308.1 413.9,357.4 			"/>
			<polygon id="XMLID_261_" class="st17" points="371.9,382.9 328.9,359.8 327.4,311 368.9,285.3 411.9,308.4 413.4,357.2 			"/>
			<polygon id="XMLID_260_" class="st18" points="371.9,382.4 329.3,359.5 327.9,311.3 368.9,285.8 411.5,308.7 413,356.9 			"/>
			<polygon id="XMLID_259_" class="st15" points="371.9,381.9 329.8,359.3 328.3,311.5 368.9,286.3 411,308.9 412.5,356.7 			"/>
			<polygon id="XMLID_258_" class="st19" points="371.9,381.4 330.2,359 328.8,311.7 368.9,286.8 410.6,309.2 412.1,356.5 			"/>
			<polygon id="XMLID_257_" class="st20" points="371.9,380.8 330.7,358.7 329.2,312 369,287.4 410.2,309.5 411.6,356.2 			"/>
			<polygon id="XMLID_256_" class="st21" points="371.8,380.3 331.1,358.5 329.7,312.2 369,287.9 409.7,309.7 411.2,356 			"/>
			<polygon id="XMLID_255_" class="st22" points="371.8,379.8 331.5,358.2 330.1,312.5 369,288.4 409.3,310 410.7,355.7 			"/>
			<polygon id="XMLID_254_" class="st23" points="371.8,379.3 332,357.9 330.6,312.7 369,288.9 408.9,310.3 410.3,355.5 			"/>
			<polygon id="XMLID_253_" class="st24" points="371.8,378.8 332.4,357.6 331,312.9 369,289.4 408.4,310.5 409.8,355.2 			"/>
			<polygon id="XMLID_252_" class="st25" points="371.8,378.3 332.8,357.4 331.5,313.2 369,289.9 408,310.8 409.4,355 			"/>
			<polygon id="XMLID_251_" class="st26" points="371.8,377.8 333.3,357.1 331.9,313.4 369.1,290.4 407.6,311.1 408.9,354.8 			"/>
			<polygon id="XMLID_250_" class="st27" points="371.8,377.3 333.7,356.8 332.4,313.7 369.1,290.9 407.1,311.4 408.5,354.5 			"/>
			<polygon id="XMLID_249_" class="st28" points="371.7,376.8 334.1,356.6 332.8,313.9 369.1,291.4 406.7,311.6 408,354.3 			"/>
			<polygon id="XMLID_248_" class="st29" points="371.7,376.2 334.6,356.3 333.3,314.2 369.1,292 406.3,311.9 407.6,354 			"/>
			<polygon id="XMLID_247_" class="st30" points="371.7,375.7 335,356 333.7,314.4 369.1,292.5 405.8,312.2 407.1,353.8 			"/>
			<polygon id="XMLID_246_" class="st31" points="371.7,375.2 335.4,355.8 334.2,314.6 369.1,293 405.4,312.4 406.7,353.6 			"/>
		</g>
	</g>
</g>
</svg>
